<?xml version="1.0" encoding="UTF-8"?>
<svg id="Layer_1" data-name="Layer 1" xmlns="http://www.w3.org/2000/svg" viewBox="0 0 1054.73 608.16">
  <defs>
    <style>
      .cls-1 {
        fill: #000;
        stroke-width: 0px;
      }
    </style>
  </defs>
  <path class="cls-1" d="M693.26,0c6.65,1.17,13.41,1.9,19.91,3.62,11.14,2.94,22.1,6.54,33.16,9.78,1.92.56,4.02,1.31,5.9,1.05,23.14-3.17,46.38-2.8,69.6-1.75,25.28,1.13,50.21,4.89,75.05,9.89,23.19,4.67,42.65,14.99,59.24,31.83,14.52,14.74,31.95,25.49,51.06,33.61,13.1,5.57,26.04,11.58,38.74,17.99,8.79,4.43,10.45,9.48,7.35,18.84-3.2,9.66-6.43,19.35-13.54,27.11-.63.69-.94,1.97-.87,2.95.97,14.74-6.85,23.63-20.04,27.34-7.83,2.2-11.31,6.51-13.84,13.64-2.56,7.23-6.44,14.02-10.07,20.82-.81,1.52-3.03,2.29-4.6,3.41-1.04-1.64-2.78-3.19-3.01-4.93-.72-5.64-.88-11.34-1.27-17.02-.16-2.4-.36-4.8-.59-7.81-6.48.85-12.45,2.01-18.47,2.36-18.87,1.1-31.72,13.6-45.96,23.6-11.64,8.18-14.55,19.19-11.71,32.52,2.15,10.1,3.26,20.76,11.01,28.4,5.86,5.77,12.72,10.53,19.27,15.56.71.55,2.6.26,3.54-.31,6.33-3.84,11.96-8.47,15.72-15.05.94-1.64,1.98-3.29,3.28-4.64,2.76-2.87,6.83-1.83,7.24,2.1.35,3.28-.12,6.78-.92,10-1.37,5.51-3.3,10.89-5.13,16.77,2.59-.29,4.96-.46,7.29-.83,3.81-.59,5.62,1.52,5.41,4.79-.42,6.74-.49,13.7-2.28,20.13-6.24,22.41-19.51,38.88-42.3,46.3-9.14,2.98-18.5,2.6-27.75.27-8.26-2.08-14.02-7.44-18.62-15.28-3.56,7.11-9.35,12.06-10.92,20.03-2.5,12.66-8.18,24.2-16.21,34.32-3.62,4.56-5.33,9.44-6.52,14.97-1.7,7.94-3.63,15.91-6.39,23.53-8.83,24.35-26.77,35.52-52.51,32.79-15.25-1.61-29.15-7.31-42.06-15.48-.42-.27-.79-.62-2.14-1.71,6.31.87,11.44,1.68,16.6,2.26,14.1,1.58,28.16,2.02,42.18-1.06,13.07-2.87,22.35-10.38,27.47-22.59,3.45-8.22,6.08-16.78,9.51-26.4-2.67.79-4.38,1.18-6,1.8-6.57,2.54-12.96,5.68-19.7,7.6-8.93,2.54-17.92,1.28-26.19-2.83-8.68-4.31-16.14-3.22-23.14,3.36-2.05,1.93-4.5,3.54-6.99,4.88-4.24,2.29-7.75,1.73-10.4-1.23-2.8-3.12-3.3-7.66-.57-11.27,6.37-8.42,14.82-13.15,25.59-12.46,8.72.56,16.69,3.84,23.89,8.64,7.98,5.33,16.28,6.22,24.69,1.96,8.59-4.34,17.71-8.33,24.99-14.4,13.21-11.01,19.79-25.73,19.6-43.36-.1-9.68-3.54-17.92-8.29-25.98-2.12-3.59-3.66-7.54-5.23-11.42-.83-2.04-1.37-4.66,1.53-5.33.82-.19,2.47,2.18,3.38,3.6,1.65,2.6,2.6,5.74,4.6,7.99,4.29,4.83,10.4,3.9,14.02-1.41,1.58-2.32,3.87-4.17,6.34-6.75-2.02-2.21-4.64-5.18-7.38-8.03-10.35-10.78-21.83-19.8-35.9-25.54-10.03-4.09-19.65-9.22-29.31-14.18-18.37-9.42-32.34-23.65-43.63-40.68-7.59-11.45-15.06-23.02-26.08-31.61-14.7-11.46-30.72-20.42-48.86-25.27-.64-.17-1.32-.24-2.27-.41-.08,1.18-.19,2.19-.2,3.21-.2,14.32-11.78,25.08-26.04,24.1-19.12-1.31-35.37-9.91-50.75-20.45-17.82-12.22-31.18-28.28-41.57-47.26-10.27-18.76-24.08-34.55-43.91-43.97-8.77-4.17-18.05-5.81-28.59-3.86,6.09-5.47,12.59-8.61,19.83-8.77,22.09-.51,41.43,6.28,56.26,23.38,5.29,6.1,10.51,12.25,18.1,15.47,3.61,1.54,7.62,2.16,12.51,3.48-.91-2.91-1.28-4.47-1.88-5.94-10.01-24.49-28.93-38.15-54.4-41.91-13.44-1.99-27.34-1.12-41.03-1.08-15.22.05-30.2-.92-44.02-8.08-12.36-6.41-18.46-17.06-20.36-31.25,2.07,3.53,3.52,6.62,5.52,9.32,8.41,11.37,20.54,16.03,33.95,16.75,14.31.77,28.69.17,43.04.17.1-.47.19-.93.29-1.4-.35-.47-.62-1.05-1.06-1.41-25.43-20.18-53.57-34.73-85.96-39.59-33.92-5.09-67.13-1.22-98.66,12.17-20.45,8.68-40.02,19.43-59.97,29.27-3.53,1.74-7.01,3.57-11.07,5.64,5.43,4.77,11.33,8.11,17.57,10.95,10.54,4.79,21.79,3.96,32.89,4.05,21.09.16,41.42-5.21,62.04-8.61,32.68-5.4,64.79-3.48,95.39,10.24,19.41,8.71,35.2,22.44,49.19,38.26,20.25,22.9,35.51,48.88,46.88,77.28-1.26-1.91-2.52-3.82-3.79-5.72-1.28-1.92-2.56-3.84-3.88-5.74-12.56-18-26.74-34.58-42.85-49.54-25.79-23.95-55.9-37.95-91.33-38.52-16.52-.27-33.11.94-49.59,2.36-18.8,1.63-37.45,5.22-56.43,4.22-26.58-1.4-49.8-10.46-67.99-30.54-1.7-1.88-3-1.97-5.2-1.05-21.79,9.2-44.48,14.33-68.19,13.59-36.16-1.13-62.98-17.26-78.79-50.37-.47-.97-.84-1.99-1.21-3.01-.07-.21.1-.51-.07.24,7.43,6.58,14.68,14.22,23.1,20.23,23.09,16.48,49.12,20.74,76.82,16.41,14.27-2.24,28.04-6.26,41.12-11.71-3.93-9.74-7.77-19.27-11.62-28.81l1.04-.38c6.07,7.08,12.22,14.1,18.18,21.27,2.27,2.74,4.24,3.12,7.56,1.45,19.52-9.83,38.98-19.78,58.82-28.93,26.4-12.18,54.23-19.07,83.36-20.35.9-.04,1.78-.43,2.67-.66,7.62,0,15.23,0,22.85,0,1.28.24,2.56.52,3.85.7,8.98,1.29,18.11,1.93,26.92,3.97,31.11,7.19,58.24,22.5,83.39,41.76,1.83,1.4,4.62,2.34,6.9,2.23,17.35-.86,34.68-2.03,52.01-3.13,6.03-.38,12.06-.84,18.18-1.27-2.91-11.93-1.71-22.9,3.69-33.29,2.8-5.38,5.52-6.34,10.99-3.87,4.31,1.95,8.45,4.32,12.53,6.73,6.74,4,13.38,8.19,20.48,12.56.4-2.56.58-4.55,1.04-6.49,1.81-7.74,2.86-15.95,11.35-19.9C686.19,0,689.73,0,693.26,0ZM746.58,135.94c.71,8.06,1.15,16.47,2.23,24.8,2.69,20.65,11,38.5,28.58,50.55,9.11,6.25,19.18,11.16,29.03,16.26,4.05,2.09,8.64,3.21,13.06,4.51,4.25,1.25,8.6,2.18,12.91,3.25-15.25,3.17-29.87.36-44.58-3.94,6.59,8.06,13.26,15.91,20.38,23.34,11.48,11.98,23.35,23.42,39.12,30.03,7.47,3.13,14.53,7.39,21.44,11.68,7.6,4.72,14.89,9.95,22.15,15.19,4.21,3.04,6.71,7.23,5.64,12.66-1.15,5.82-2.65,11.57-3.91,17.38-.29,1.35-.76,3.05-.23,4.12,3.44,6.88,8.55,11.87,16.48,13.22,12.23,2.09,24.12.95,35.4-4.38,12.63-5.96,22.47-21.85,21.49-34.56-1.97-.11-3.97-.21-5.98-.33-14.14-.83-26.97-4.75-36.98-15.49-2.96-3.18-6.31-6-9.26-9.18-6.89-7.44-13.41-15.28-14.25-25.91-.95-12.02-1.45-24.09-1.83-36.15-.19-5.96,2.15-11.19,6.62-15.23,5.03-4.55,9.93-9.33,15.39-13.3,11.19-8.13,22.31-16.63,36.5-19.03,8.03-1.36,16.1-2.48,24.18-3.52,13.11-1.69,26.25-3.52,37.83-10.37,4.78-2.83,9.39-6.6,12.77-10.95,5.34-6.89,3.04-14.66-4.81-18.5-6.21-3.03-12.73-5.41-18.97-8.39-3.26-1.56-6.34-3.6-9.25-5.76-1.94-1.43-2.6-3.61-1.16-6.4,1.4,1.04,2.47,2.09,3.75,2.75,5.02,2.6,9.87,5.82,15.21,7.38,5.71,1.67,12.04,2.01,16.55-3.45,3.27-3.97,6.99-6.69,12.65-5.89-.94-4.41-4.31-6-7.4-7.44-11.8-5.51-23.58-11.11-35.62-16.03-22.69-9.27-43.87-20.3-60.86-38.88-13.75-15.04-31.51-24.69-51.79-28.11-35.28-5.94-70.78-9.52-106.67-8.34-26.69.88-52.29,7.11-78.75,14.54,10.22,3.59,19.58,6.87,28.93,10.15-8.93.31-17.65-.54-26.39-.95-17.79-.84-34.65-4.53-49.85-14.39-3.96-2.57-8.43-4.35-12.73-6.37-2.52-1.18-4.76-.5-5.57,2.22-2.04,6.9-2.03,13.71,2.3,19.87,3.36,4.78,6.8,9.51,10.49,14.03,1.25,1.53,3.23,2.75,5.11,3.42,3.39,1.22,6.96,1.92,10.79,2.92-1.78,5.17-3.43,9.95-5.14,14.91,4.27,1.27,8.15,2.43,12.21,3.64-1.45,3.62-2.8,6.98-4.25,10.6,2.05.9,3.84,1.85,5.74,2.48,5.65,1.86,10.18,4.78,11.96,10.93.39,1.34,1.61,2.48,2.58,3.59,7.02,8.08,16.67,11.65,26.48,14.35,9.9,2.72,20.11,4.35,30.28,6.48ZM639.43,78.26c-.69,2.16-1.19,3.56-1.58,4.99-2.52,9.32-1.45,17.7,6.09,24.61,2.79,2.56,5.2,5.55,7.72,8.39,12.72,14.31,25.69,28.42,35.88,44.77.76,1.23,2.44,2.06,3.86,2.68,12.68,5.53,25.4,10.97,38.1,16.46,2.25.98,4.43,2.12,5.7,2.74-3.75-13.91-7.77-28.08-11.28-42.38-.81-3.29-1.99-3.95-5.06-3.97-21.98-.11-40.47-7.83-54.71-25.06-1.72-2.08-4.77-3.4-7.47-4.24-2.76-.85-4.1-2.05-4.27-4.96-.15-2.52-.77-5.01-1.18-7.54-2.5-.11-4.65-.21-6.95-.31-1.7-7.21-.87-14.08,2.21-21.95-5.07.85-9.23,1.55-13.72,2.3.27-1.66.07-4.04,1.05-5.76,2.96-5.2,1.04-9.09-2.63-12.76-.19-.19-.28-.53-.5-.63-1.33-.63-2.8-1.9-4.02-1.7-14.3,2.31-28.57,4.83-41.84,7.13,7.23,3.91,15.45,7.51,22.7,12.49,7.72,5.31,11.5,13.79,14.06,23.86,2.75-10.08,8.33-16.08,17.83-19.17ZM579.22,121.86c4.44,9.21,10.79,16.38,20.4,19.98,5.96,2.23,12.11,3.95,18.17,5.89,9.99,3.2,19.89,6.69,27.66,14.11,7.49,7.15,12.99,15.14,7.22,27.52,5.08-2.16,9.21-3.44,12.85-5.55,7.22-4.18,9.8-11.05,7.92-19.16-1.93-8.31-7.99-13.15-15.26-15.65-11.1-3.82-22.49-7.07-33.99-9.38-16.12-3.24-32.74-4.68-44.97-17.75Z"/>
  <path class="cls-1" d="M533.35,532.83c-8.66,3.05-17.4,5.88-25.96,9.19-22.66,8.78-45.29,17.66-69.04,23.13-75.43,17.39-143.75,1.32-205.76-44-11.41-8.34-22.44-17.19-33.94-25.39-7.88-5.62-16.56-9.8-26.3-11.43-8.64-1.44-16.67.01-24.82,5.25,2.28-5.29,5.65-8.27,9.79-10.35,11.12-5.6,22.66-4.68,34.18-1.62,11.2,2.97,20.97,8.88,30.24,15.62,9.45,6.87,18.66,14.08,28.23,20.78,4.15,2.9,8.93,4.89,13.85,7.53-1.09-30.84-27.46-53.23-64.27-45.19,2.81-1.57,5.51-3.41,8.46-4.66,18.09-7.67,35.92-7.3,53.37,2.09,7.29,3.92,14.47,8.25,22.97,8.99,11.58,1,22.15-2.07,31.38-9.07,6.82-5.17,13.32-10.75,19.85-16.29,13.03-11.06,27.12-20.03,44.43-22.6,14.71-2.18,29.36-.91,43.79,2.04,26.11,5.33,52.04,5.65,77.89-1.34,1.82-.49,3.61-1.11,6.37-1.96-2.78-1.61-4.74-2.99-6.89-3.95-27.87-12.44-56.89-19.93-87.6-19.15-22.57.58-43.97,6.77-64.58,15.61-17.95,7.7-35.38,16.72-53.62,23.63-46.75,17.71-91.94,12.31-134.63-12.64-20.58-12.03-35.4-30.25-47.03-50.98-.24-.43-.37-.93-.38-1.64,34,37.96,74.86,56.38,125.96,45.16-7.52-2.17-15.46-4.03-23.08-6.75-16.09-5.75-28.92-16.41-41.04-28.1-8.41-8.1-16.86-16.19-25.77-23.73-17.41-14.72-38.03-21.87-60.52-23.44-10.66-.74-21.41-.13-32.12-.13-.07-.44-.14-.88-.21-1.32,4.99-1.28,9.95-2.74,14.98-3.81,26.79-5.66,53.44-5.02,79.89,2.17,8.93,2.43,16.76,6.99,24.03,12.57,10.77,8.28,21.18,17.07,32.3,24.84,22.4,15.65,47.92,22.65,74.86,23.06,19.75.3,39.1-4.15,57.81-10.71,22.58-7.91,45.61-13.4,69.7-13.2,24.27.21,46.64,6.67,66.56,20.86.74.53,1.53.99,2.95,1.89-2.65-7.44-6.77-13.04-11.76-18.05-12.07-12.12-27.13-18.23-43.65-21.14-23.91-4.21-47.37-.71-70.71,4.38-14.45,3.15-28.8,6.83-43.34,9.49-33.31,6.09-61.6-4.43-85.92-27.12-2.83-2.64-5.56-5.37-8.14-8.42,33.64,18.28,69.24,23.7,106.89,17.08-1.8-.76-3.6-1.53-5.4-2.28-15.75-6.6-29.12-16.8-41.98-27.76-10.5-8.95-21.51-16.88-35.06-20.89-18.48-5.46-36.19-3.04-53.81,3.64-12.92,4.9-25.86,9.93-39.14,13.68-11.69,3.31-23.74,2.11-35.4-1.48-20.2-6.22-33.05-22.58-34.95-44.54-.44-5.06-.52-10.16.1-15.28,2.13,5.01,3.93,10.2,6.45,15,8.88,16.88,22.46,26.93,42.01,27.69,10.3.4,19.79-2.85,29.04-6.98,10.9-4.86,21.49-10.77,32.82-14.24,28.34-8.69,53.59-1.42,75.77,17.55,6.09,5.21,11.79,10.87,17.76,16.2,18.72,16.72,41.11,24.29,65.74,26.29,17.15,1.39,34.2.64,51.58-2.05-.71-.49-1.17-.95-1.73-1.17-19.21-7.44-35.47-19.22-48-35.36-13.27-17.09-31.27-20.7-51.05-20.64-4.32.01-8.63.71-13.14.31,7.76-1.81,15.48-3.79,23.29-5.37,4.38-.89,8.88-1.19,13.34-1.65,17.09-1.76,30.15,6.3,41.72,17.53,7.11,6.9,13.58,14.47,20.79,21.27,16.55,15.63,37.21,22.47,59.05,26.25,10.54,1.82,21.24,2.8,32.11,4.86-7.94,1.07-15.88,2.13-24.32,3.27,2.89,1.51,5.64,2.6,7.99,4.26,6.2,4.36,12.19,9.02,18.33,13.46,2.58,1.86,5.15,3.97,8.06,5.11,14.91,5.88,30.22,9.82,46.47,8.24,14.11-1.37,26.53-6.81,36.99-16.31,4.98-4.52,8.85-10.16,6-17.31-2.89-7.22-9.48-9.23-16.57-9.72-9.07-.62-17.34,2.69-25.71,5.49-9.14,3.06-18.25,6.38-28.17,5.3-1.21-.13-2.49-.19-3.6-.62-1.56-.61-3-1.54-4.49-2.33,1.11-1.58,1.89-3.63,3.37-4.65,7.49-5.15,16.16-7.02,25-7.82,6.2-.56,12.49,0,18.72-.33,25.36-1.34,48.66-7.26,64.6-29.41,12.01-16.69,10.11-27.72-6.96-39.21-9.35-6.29-19.55-11.62-27.89-19.03-10.51-9.34-19.48-20.39-29.18-30.65-5.88-6.22-11.72-12.48-17.84-18.45-11.38-11.11-25.01-18.52-39.95-23.78-2.8-.98-5.36-2.96-7.68-4.9-7.27-6.1-14-12.9-21.63-18.48-7.89-5.77-13.25-4.27-18.8,3.84-3.23,4.72-6.27,9.57-11.68,12.19-5.43,2.63-7.16,2.3-11.05-2.03-1.63-1.82-3.32-3.61-5.13-5.25-12.08-10.92-31.52-9.11-43.13,4.39-8.59,9.99-16.39,20.66-25.06,30.57-18.62,21.29-39.2,40.39-64.41,53.8-19.36,10.3-39.81,16.85-62.05,15.55-17.71-1.03-34.33-6.56-50.47-13.58-6.06-2.63-11.97-5.6-17.63-9.19,6.76,1.75,13.47,3.71,20.29,5.22,18.59,4.1,37.31,5.48,56.23,2.22,19.11-3.3,35.2-12.53,49.45-25.18,12.8-11.36,25.25-23.1,37.63-35.15-1.18.7-2.36,1.4-3.55,2.1-17.76,10.5-36.34,19-56.8,22.66-11.64,2.08-23.28,2.39-34.54-2.09-2.7-1.07-5.22-2.61-7.55-4.65,5.97,0,12.01.52,17.91-.11,12.49-1.33,23.94-6.28,34.65-12.48,18.68-10.82,37.18-21.97,55.45-33.47,30.12-18.96,62.86-29.48,98.35-30.88,46.12-1.82,86.55,13.81,122.99,41.17,12.93,9.71,25.58,19.84,39,28.81,21.35,14.27,45.17,20.19,70.85,18.31.39-.03.79.05,1.17.41-27.15,9.28-53.52,3.95-79.67-4.86-.12.52-.29.84-.2.95,15.66,19.15,32.38,37.04,55.71,47.17,11.44,4.97,23.3,7.94,36.35,8.51-22.64,11.09-34.53,31.4-47.44,51,13.27-8.35,27.64-13.56,43-15.79,15.72-2.29,30.47.99,44.15,9.24-2.1-.41-4.19-.87-6.3-1.22-2.28-.37-4.57-.66-6.86-.94-28.69-3.48-51.33,7.68-69.02,29.48-14.21,17.51-27.57,35.71-41.46,53.48-12.83,16.42-26.2,32.46-43.79,44.05-32.86,21.65-68.41,28.58-106.96,18.71-14.84-3.8-29.74-7.7-45.32-7.24-14.24.42-26.6,5.43-37.4,14.93,2.33-.3,4.66-.63,6.99-.9,16.83-1.97,32.97,1.82,49.03,6.05,18.93,4.99,37.89,9.68,57.61,10.28,31.7.96,59.22-9.68,83.08-30.05,13.53-11.56,26.23-24.09,39.85-35.52,7.96-6.67,16.84-12.31,25.65-17.88,3.69-2.33,8.24-3.29,12.83-4.22-.27.3-.48.69-.81.88-15.73,9.06-25.77,22.9-33.35,38.99-3.92,8.33-8.11,16.62-13.08,24.35-9.08,14.12-22.75,22.65-37.93,29.02-2.19.92-4.38,1.83-6.4,2.68,37.37,2.76,66.05-11.53,84.09-44.67,8.09-14.87,14.74-30.52,21.91-45.88,5.4-11.59,10.77-23.21,19.77-32.58,11.82-12.3,26.06-17.18,42.95-13.32.48.11.93.31,2,.68-1.26.51-1.93.92-2.66,1.06-17.64,3.28-30.25,13.76-38.12,29.15-6.76,13.22-11.66,27.39-17.26,41.19-3.93,9.67-7.21,19.62-11.55,29.1-12.57,27.47-35.23,41.86-64.15,46.43-25.69,4.05-51.41,2.56-76.98-2.59-24.25-4.88-48.64-9.08-73.58-7.74-18.16.97-35.82,4.06-52.69,11.28-16.45,7.04-33.5,10.21-51.29,5.69-3.23-.82-6.34-2.13-10.61-3.58,8.53,8.42,17.79,13.19,28.16,15.78,20.25,5.07,39.62,1.91,58.3-6.78,12.07-5.62,24.51-9.68,38.03-9.33,10.95.29,21.56,2.36,31.9,5.99,9.28,3.26,18.28,7.62,28.59,7.48-20.49,15.66-42.94,26.39-68.89,28.33-25.17,1.88-50.23,2.25-73.63-9.88,8.31,6.81,17.7,11.38,27.84,14.48,13.41,4.09,27.12,5.57,41.08,4.31,14.2-1.28,28.42-2.44,42.57-4.17,18.32-2.24,35.34-8.64,50.99-18.3,24.06-14.84,50.2-23.7,77.93-28.39,4.81-.81,9.56-2.03,14.35-2.99,19.37-3.89,33.67-15.06,44.72-30.95.74-1.06,1.52-2.09,3-4.11-1.05,17.57-6.4,32.52-14.04,47.03,3.35-2.4,6.68-4.83,10.07-7.19,17.84-12.39,36.51-23.28,57.94-28,8.37-1.85,17.19-1.7,25.82-2.29,1.67-.11,3.39.57,5.06,1.07-20.82.45-37.93,10.32-54.38,21.47-24.85,16.86-46.27,37.34-63.74,61.85-.31.43-.57.9-.87,1.37,21.75,5.3,52.88,6.37,83.24-27.4-.46,1.43-.82,2.9-1.4,4.29-9.15,21.85-25.44,36.42-46.77,45.91-18.93,8.42-38.38,10.42-58.47,5.06-2.91-.78-5.26-.4-7.95,1.25-11.06,6.79-23.7,9.2-36.06,12.3-3.77.94-7.61,1.61-12.25,2.58,10.05-7.18,19.4-13.85,28.74-20.52-25.58-4.88-47.14,4.82-68.46,16.85.73-.99,1.38-2.06,2.19-2.97,19.01-21.3,42.12-35.38,70.68-39.44,6.4-.91,13.01-.29,19.5-.72,1.89-.12,4.23-.97,5.44-2.31,4.98-5.54,9.6-11.41,15.03-17.96-1.49.3-2.02.25-2.32.49-10.74,8.48-23.29,12.27-36.62,13.32-45.49,3.58-82.82,24.19-115.58,54.59-.3.28-.63.51-.97.79,1.82-5.84,23.23-29.63,38.17-42.55,14.66-12.68,30.52-23.51,48.25-31.52-.16-.42-.32-.83-.48-1.25Z"/>
  <path class="cls-1" d="M423.74,117.44c-5.74,0-11.67.11-17.59-.02-27.15-.62-52.36,6.3-76.09,19.27-11.79,6.44-23.52,13.09-35.73,18.64-18.39,8.37-37.87,11.01-57.74,6.7-21.87-4.75-37.16-18.88-49.34-36.85-6.48-9.57-11.65-19.83-14.9-31.13.68.8,1.39,1.58,2.04,2.41,9.26,11.81,19.63,22.47,31.64,31.58,17.13,13,36.25,15.63,56.79,11.82,2.14-.4,4.26-.85,6.39-1.3.22-.05.41-.25,1.48-.94-24.91-3.06-40.12-17.71-50.54-38.56,6.43,4.25,12.44,8.92,19.06,12.49,17.34,9.35,35.96,11.41,55.36,8.82,25.03-3.35,50.07-6.76,75.18-9.37,17.57-1.82,34.99.24,51.91,5.64.76.24,1.5.58,2.07.8Z"/>
  <path class="cls-1" d="M0,205.26c9.03,3.34,17.83,7.34,27.04,9.85,14.98,4.09,29.69,1.41,43.8-4.38,10.66-4.37,21.1-9.28,31.66-13.88,22.04-9.59,44.34-10.75,66.93-1.96,11.92,4.64,21.35,12.76,30.35,21.53,8.73,8.5,17.93,16.27,30.31,18.93,1.83.39,3.66.78,6.46,1.37-18.19,6.79-35.11,8.74-51.24-2.74-4.09-2.91-8.15-5.88-12.12-8.96-17.78-13.83-37.34-16.49-58.4-9.24-12.18,4.19-24.15,9-36.43,12.87-14.5,4.57-29.45,5.11-44.31,2-15.32-3.2-25.55-13.51-34.04-25.39Z"/>
  <path class="cls-1" d="M265.82,176.83c-22.74,20.03-55.47,27.23-83.11,11.27-10.67-6.16-20.56-13.66-30.74-20.65-15.21-10.45-31.63-17.38-50.41-17.22-12.97.11-24.78,4.57-35.87,10.83-7.15,4.04-13.89,8.79-21.32,12.81,3.34-3.56,6.54-7.26,10.05-10.65,14.87-14.35,31.89-24.76,52.64-28.15,16.25-2.66,31.78-.11,46.15,7.66,10.84,5.86,21.28,12.52,31.63,19.23,12.16,7.88,24.59,14.97,39.22,17.07,12.66,1.82,25.2.3,37.71-1.62,1.06-.16,2.12-.31,4.05-.59Z"/>
  <path class="cls-1" d="M454.5,329.27c-26.97-2.03-50.18-11.63-67.43-32.79-19.45-23.86-44.91-32.96-74.79-30.52-11.97.98-23.78,3.9-35.66,5.95-.63.11-1.23.33-1.85.49-.14-.32-.27-.63-.41-.95,5.33-2.51,10.54-5.3,16-7.49,21.52-8.62,43.89-10.75,66.83-8.42,14.31,1.45,24.91,9.48,34.39,19.35,5.17,5.38,10.05,11.07,14.75,16.88,11.93,14.76,27.39,25.03,43.4,34.65,1.59.95,3.18,1.9,4.77,2.86Z"/>
  <path class="cls-1" d="M553.75,250.37c-13.93-10.58-29.47-22.86-45.52-34.46-22.19-16.04-47.25-23.41-74.61-22.67-5.26.14-9.5-1.28-13.97-4.09-7.65-4.82-15.71-9.13-23.96-12.83-6.52-2.92-10.23-1.62-13.84,2.87-4.34,5.39-5.34,11.85-1.73,16.94,2.29,3.24,5.59,5.81,8.66,8.42,1.58,1.34,3.63,2.13,5.38,3.94-2.39,0-4.78-.09-7.16.01-11.07.46-20.86,4.88-30.05,10.5-12.56,7.69-26.03,12.72-40.42,15.51-.24.05-.51-.03-1.21-.09,6.46-3.08,12.75-5.66,18.64-8.97,16.71-9.39,29.99-21.78,35.27-41.14,2.63-9.66,10.17-15.38,18.94-14.7,2.72.21,5.45,1.49,8,2.66,10.26,4.7,20.53,9.47,31.85,10.83,8.88,1.07,17.88,1.13,26.79,2.04,33.49,3.44,61.28,17.31,81.82,44.64,5.86,7.79,12.47,15.02,17.12,20.57Z"/>
  <path class="cls-1" d="M827.26,303.59c-3.71-2.98-7.58-5.79-11.08-8.99-9.01-8.23-20.11-10.85-31.7-12.33-11.9-1.53-23.42-4.21-34.44-9.25-5.22-2.39-11.03-3.48-17.04-5.31-.6-4.79,2.24-8.58,6.03-11.95-7.98-3.98-15.57,1.72-17.69,12.81-10.34,2.3-20.62,4.59-32.06,7.14.99-2.4,1.33-4.59,2.58-5.99,9.06-10.17,19.69-18.26,32.46-23.26,6.38-2.5,12.91-2.77,19.47-.25-.77-13.17-17.68-20.04-37.96-15.64,7.03-5.17,26.75-8.52,34.33-4.93,3.68,1.75,6.99,5.11,9.41,8.51,4.5,6.33,6.22,13.88,6.49,21.55.22,6.27,3.55,10.69,7.47,14.86.83.88,2.68,1.06,4.08,1.12,6.23.27,12.54-.17,18.69.64,17.31,2.3,33.46,15.63,39.87,32.27.37-.33.73-.67,1.1-1Z"/>
  <path class="cls-1" d="M732.37,321.28c21.39-11.63,43.5-21.39,68.62-19.42,17.44,1.37,29.94,11.11,39.03,25.56,1.73,2.74,3.04,5.75,4.5,8.66.29.57.36,1.25.58,2.1-5.28,1.13-9.56-.3-13.1-3.92-14.08-14.43-31.74-20.6-51.35-21.36-15.06-.59-29.65,2.97-44.05,7.14-1.41.41-2.82.83-4.23,1.24Z"/>
  <path class="cls-1" d="M478.11,367.98c8.07.51,16.15,1.45,24.22,1.43,9.34-.02,18.72-.49,28.01-1.49,9.16-.99,16.92-5.51,23.89-11.45,2.25-1.92,4.61-4.1,7.3-4.96,1.91-.61,4.89.23,6.57,1.51.88.67.64,4.02-.22,5.51-1.52,2.64-3.64,5.09-5.97,7.09-11.39,9.76-24.9,12.79-39.53,11.83-14.7-.97-29.01-4.06-43.04-8.5-.47-.15-.91-.37-1.37-.56.04-.14.08-.27.13-.41Z"/>
  <path class="cls-1" d="M747.23,344.45c11.7-9.48,24.11-17.62,39.07-20.99,9.08-2.05,17.75-.94,25.27,4.53,7.2,5.24,13.83,11.25,20.71,16.92-.15.46-.29.91-.44,1.37-1.92-.26-4-.13-5.72-.86-3.62-1.52-7.1-3.39-10.55-5.29-14.02-7.69-28.56-8.83-43.68-3.76-8.2,2.75-16.44,5.39-24.66,8.08Z"/>
  <path class="cls-1" d="M543.81,317.9c8.15-1.67,15.59-2.92,22.87-4.78,4.02-1.03,8.15-2.54,11.52-4.86,2.69-1.86,5.01-5,6.23-8.07,2.29-5.74.56-9.01-4.97-11.97-1.67-.9-3.47-1.69-4.85-2.93-.92-.83-1.2-2.36-1.77-3.58,1.48-.05,3.41-.72,4.35-.03,3.68,2.71,7.41,2.79,11.87,1.25-4.37-10.32-14.34-14.59-21.64-21.59,10.62,5.58,21.25,11.23,29.42,20.3,4.01,4.45,2.56,9.63.54,14.58-5.58,13.69-16.52,20.13-30.54,21.56-7.35.75-14.84.13-23.04.13Z"/>
  <path class="cls-1" d="M437.28,242.52c15.37-4.26,29.56-10.8,45.29-11.32,4.8-.16,5.37-.08,4.94,4.72-.38,4.27,1.15,6.34,5.19,8.24,15.08,7.1,29.88,14.78,44.76,22.29,1.56.79,2.98,1.83,4.2,3.33-6.2-2.5-12.39-5.04-18.61-7.49-16.01-6.3-31.62-13.7-48.65-17.15-1.2-.24-2.74-2.6-2.77-4-.04-2.17,1.07-4.37,1.69-6.54-3.7-.67-7.25,1.27-8.93,5.69-.82,2.16-1.81,2.7-4.04,2.86-3.89.29-7.76,1.13-11.6,1.91-4.08.82-7.76.13-11.49-2.54Z"/>
  <path class="cls-1" d="M439.08,170.84c.78-2.17,1.34-4.39,2.35-6.39,2.56-5.08,5.94-6.55,10.9-3.81,8.25,4.56,16.15,9.74,23.8,15.2-12.11-1.64-24.22-3.27-37.04-5.01Z"/>
  <path class="cls-1" d="M980.87,116.22c-21.21-12.85-43.07-24.08-68.8-24.47-3.38-.05-6.76-.17-10.12-.42-2.78-.21-4.02-2.11-3.02-4.5,1.57-3.75,3.71-7.26,5.61-10.89-5.56-3.06-14.84.91-17.37,8.92-1.07,3.39-2.82,3.99-5.8,4.12-7.76.32-15.02-1.47-23.17-4.92,2.32-.35,3.6-.41,4.8-.76,4.65-1.36,9.69-2.08,13.82-4.4,7.82-4.4,15.66-8.11,25.26-7.67,0-9.85-5.9-15.95-12.03-21.93.28-.37.55-.74.83-1.11,3.82,2.6,8.42,4.54,11.31,7.93,5.94,6.98,11.11,14.64,16.26,22.26,1.26,1.87,2.26,2.86,4.53,3.25,26.98,4.63,48.59,18.65,66.84,38.47.37.4.67.86.93,1.33.11.2.02.5.02.79-7.29-1.42-14.6-2.78-21.88-4.28-7.99-1.64-14.94,0-21.1,5.59-15.67,14.26-31.5,28.34-47.26,42.5-1.41,1.27-2.76,2.6-4.48,4.22.1-.75.03-1.13.19-1.35,12.26-16.91,24.51-33.84,36.82-50.71,6.75-9.25,16.15-10.97,26.54-8.45,7.19,1.74,14.18,4.28,21.26,6.47Z"/>
</svg>